<svg id="Layer_1" data-name="Layer 1" xmlns="http://www.w3.org/2000/svg" viewBox="0 0 122.88 123.79">
  <defs>
    <style>.cls-1{fill:#ed1d24;}</style>
  </defs>
  <title>airtel</title>
  <path class="cls-1" d="M68.09.1a6.16,6.16,0,0,1-1.24.15,41.48,41.48,0,0,0-9.53,2.4l-1.19.49a43.68,43.68,0,0,0-5,2.41L49.5,6.5c-4.43,2.37-8.62,5.26-12.44,8.58L35.61,16.4l-1.15,1a44,44,0,0,0-4.6,4.64l-.94,1.1c-1.85,2.23-3.52,4.58-4.95,7.1l-.81,1.48a43,43,0,0,0-2.61,5.65c-2,5.13-3.08,10.61-3.19,16.32a6.45,6.45,0,0,1-.07,1.06,44,44,0,0,0,.69,10.22l.26,1.26a43,43,0,0,0,1.55,5.1l.66,1.68a41.42,41.42,0,0,0,2.15,4.35c3.27,5.77,7.74,10.74,13,14.61l1.55,1.13c1.78,1.27,3.67,2.45,5.63,3.53l1.55.84a45.67,45.67,0,0,0,5.68,2.58l.6.21a46.21,46.21,0,0,0,10.69,2.23c.31,0,.61.05.92.07,1.3.11,2.61.16,3.92.16a24.13,24.13,0,0,0,3-.18h0a65.34,65.34,0,0,0,7.24-1.3c23.63-5.46,40.16-25.13,41.67-48.45l.07-1.17a6.2,6.2,0,0,1,0-.63,44,44,0,0,0-1-10.74l-.22-1a42.8,42.8,0,0,0-1.83-5.38l-.66-1.54a43.51,43.51,0,0,0-2.48-4.79C110,32.79,104,24.16,95.53,17.75l-1.38-1a43.51,43.51,0,0,0-5.75-3.6l-1.42-.72a44.64,44.64,0,0,0-5.39-2.18L81,9.81a41.87,41.87,0,0,0-10.15-2.09c-.31,0-.61-.06-.92-.08A46.72,46.72,0,0,0,68.09.1ZM66,74.77,65.3,59.39a17.2,17.2,0,0,1-1.22-5.44,17.59,17.59,0,0,1,.13-3.69,14.54,14.54,0,0,1,2.42-6.42A13.41,13.41,0,0,1,72.48,39,18,18,0,0,1,78.27,37a19.78,19.78,0,0,1,5,.61,23.3,23.3,0,0,1,4.46,1.72l4.13,2a19.14,19.14,0,0,0,3.31,1.25,23.11,23.11,0,0,0,3.75.64l.9.06a3.29,3.29,0,0,1,2.5,1.13,3.74,3.74,0,0,1,.81,2.52l.14,13.88a10,10,0,0,1-.53,3.3,7.57,7.57,0,0,1-1.74,2.83,11,11,0,0,1-3.2,2.23,19.17,19.17,0,0,1-4.83,1.44,38.83,38.83,0,0,1-6.73.57,41.34,41.34,0,0,1-7.24-.62,18.42,18.42,0,0,1-5.61-1.89l-1-.59a5.07,5.07,0,0,0-2.38-.68,2,2,0,0,0-1.07.23,2.06,2.06,0,0,0-.73,1.38,6.23,6.23,0,0,0-.16,1.45,34.42,34.42,0,0,0,.15,4.71l.2,3.1a25.29,25.29,0,0,0,1.48,5.92l.85,2a17,17,0,0,0,3.61,4.72,13.13,13.13,0,0,0,4.41,2.6,18,18,0,0,0,5.65,1,16,16,0,0,0,4.49-.61,13.43,13.43,0,0,0,3.84-1.74,11.23,11.23,0,0,0,2.88-2.67c.72-.94,1.36-2,1.93-3.07a10.22,10.22,0,0,0,.7-1.48,3.22,3.22,0,0,1,1-1.39,2.63,2.63,0,0,1,1.52-.45,3,3,0,0,1,1.44.38,3.42,3.42,0,0,1,1,1,3.22,3.22,0,0,1,.53,1.51,6.56,6.56,0,0,1,.06,1.06l-.23,3.77A23,23,0,0,1,105,94.39a25,25,0,0,1-4.22,4.89,24,24,0,0,1-5.75,3.7,29.13,29.13,0,0,1-7.23,2.37l-1.33.25a40.35,40.35,0,0,1-12.89-.09,27.13,27.13,0,0,1-11.41-4.57,21.64,21.64,0,0,1-5.07-4.8,24,24,0,0,1-3.23-6.52l-.66-2.11a28.23,28.23,0,0,1-.95-7.46,47.74,47.74,0,0,1,.13-5.28ZM59.73,81.16a24,24,0,0,1-.13,2.5,23.3,23.3,0,0,1-.58,3.27,24,24,0,0,1-3.32,7.3l-.7,1a23,23,0,0,1-3.56,3.67,24.16,24.16,0,0,1-8.52,4.52,31.06,31.06,0,0,1-4.88,1c-.81.09-1.63.14-2.45.14s-1.64,0-2.46-.14a31.06,31.06,0,0,1-4.88-1,24.16,24.16,0,0,1-8.52-4.52,23,23,0,0,1-3.56-3.67l-.7-1a24,24,0,0,1-3.32-7.3,23.3,23.3,0,0,1-.58-3.27,24,24,0,0,1-.13-2.5V36.31a6.3,6.3,0,0,1,.15-1.33,4.41,4.41,0,0,1,4.64-3.79,4.49,4.49,0,0,1,4.65,3.79,6.3,6.3,0,0,1,.15,1.33v44.3c0,1,0,2,.13,3a14.77,14.77,0,0,0,.55,2.94,14.28,14.28,0,0,0,1,2.44,13.62,13.62,0,0,0,1.75,2.54l.5.54a13.25,13.25,0,0,0,1.9,1.6,14.49,14.49,0,0,0,4.86,2.37,18.45,18.45,0,0,0,5.08.7h0a18.45,18.45,0,0,0,5.08-.7,14.49,14.49,0,0,0,4.86-2.37,13.25,13.25,0,0,0,1.9-1.6l.5-.54a13.62,13.62,0,0,0,1.75-2.54,14.28,14.28,0,0,0,1-2.44,14.77,14.77,0,0,0,.55-2.94c.09-1,.13-2,.13-3V36.31a6.3,6.3,0,0,1,.15-1.33,4.41,4.41,0,0,1,4.64-3.79,4.49,4.49,0,0,1,4.65,3.79,6.3,6.3,0,0,1,.15,1.33Z"/></svg>
